<?xml version="1.0" encoding="UTF-8"?>
<svg version="1.1" xmlns="http://www.w3.org/2000/svg" width="1080" height="648">
<path d="M0 0 C5.62421889 4.45595283 8.87376558 10.66967663 10.125 17.68359375 C13.54909814 59.3662818 -3.62690655 103.10181794 -29.73608398 135.27490234 C-31.875 137.68359375 -31.875 137.68359375 -34.20410156 139.6394043 C-39.11842113 144.02459052 -41.3714746 147.68105258 -41.78033447 154.18310547 C-41.85823906 158.5041554 -41.73081694 162.8035785 -41.5625 167.12109375 C-41.52130643 168.99309661 -41.48334479 170.86517315 -41.44848633 172.73730469 C-41.32556203 178.38927838 -41.1073834 184.03523119 -40.875 189.68359375 C-40.81209077 191.3588714 -40.7495746 193.03416387 -40.6875 194.70947266 C-40.94072779 232.33441568 -40.94072779 232.33441568 -28.875 266.68359375 C-25.74027247 268.08361487 -25.74027247 268.08361487 -22.1875 266.24609375 C-6.69097579 257.86040606 2.74574019 236.82137318 8.125 220.68359375 C8.23985319 219.04418009 8.30324035 217.4009191 8.3359375 215.7578125 C8.36228271 214.7479126 8.38862793 213.7380127 8.41577148 212.69750977 C8.44356689 211.59979248 8.4713623 210.5020752 8.5 209.37109375 C8.82577836 199.11959613 9.53785927 188.94742706 10.5625 178.74609375 C10.6847998 177.51012451 10.80709961 176.27415527 10.93310547 175.00073242 C13.21456173 153.16075805 13.21456173 153.16075805 18.125 148.68359375 C21.63465725 146.14211781 24.8972138 146.11988892 29.125 146.68359375 C35.62769635 150.15746766 40.77840877 155.64382007 43.125 162.68359375 C43.47518324 170.0298291 42.54066828 177.08178172 41.52944946 184.35198975 C41.05077755 187.81053413 40.59723167 191.2723492 40.14453125 194.734375 C40.05461411 195.42156616 39.96469696 196.10875732 39.87205505 196.81677246 C38.67027673 206.08555114 37.76565148 215.3600009 37.125 224.68359375 C37.01430176 226.26672363 37.01430176 226.26672363 36.90136719 227.88183594 C36.68013696 231.23147602 36.49083884 234.58141559 36.3125 237.93359375 C36.24716064 238.95759277 36.18182129 239.9815918 36.11450195 241.03662109 C35.77334997 248.60907656 36.27842605 256.14694126 41.1875 262.24609375 C44.91749245 265.0135075 47.48307964 265.06407903 52.125 264.68359375 C60.87862021 260.60863262 66.08686289 253.74235892 71.125 245.68359375 C71.85589844 244.60078125 72.58679688 243.51796875 73.33984375 242.40234375 C76.2335324 236.46537688 75.40943232 229.75194298 75.1968689 223.31985474 C74.50214683 200.85717466 75.77520369 177.58637074 91.125 159.68359375 C98.01147559 153.02244252 105.34171235 150.57413221 114.8125 150.24609375 C125.81010529 150.51925241 136.7525818 153.23324804 145.125 160.68359375 C149.51719249 165.64014617 150.42856354 170.68865559 150.34375 177.11328125 C149.74781993 184.11545956 147.95444384 191.42802251 143.125 196.68359375 C140.4375 197.12109375 140.4375 197.12109375 138.125 196.68359375 C137.795 196.35359375 137.465 196.02359375 137.125 195.68359375 C137.47626187 192.17097507 137.8840376 188.76972279 138.6484375 185.32421875 C139.20401181 182.2457906 139.33115465 179.31122905 139.375 176.18359375 C139.41367188 174.5284375 139.41367188 174.5284375 139.453125 172.83984375 C139.0853433 169.30213407 138.25190052 167.50620939 136.125 164.68359375 C133.4049027 162.45348969 133.4049027 162.45348969 130.8125 162.74609375 C125.38764192 164.6384861 122.29465293 167.90099617 119.5625 172.80859375 C109.78268214 193.7924748 106.97575617 222.59801151 114.125 244.68359375 C117.45545466 253.48673223 117.45545466 253.48673223 124.125 259.68359375 C135.49041999 261.57783041 144.9084887 257.64604347 154.25 251.49609375 C159.87792171 247.35496497 166.95495421 242.02368532 170.125 235.68359375 C170.18638098 234.1600629 170.18496492 232.63379283 170.15234375 231.109375 C170.13856689 230.14757324 170.12479004 229.18577148 170.1105957 228.19482422 C170.09472412 227.13924316 170.07885254 226.08366211 170.0625 224.99609375 C169.92984302 205.48553273 171.17539806 185.98541576 173.5625 166.62109375 C173.67247314 165.69409668 173.78244629 164.76709961 173.89575195 163.81201172 C174.71728039 157.71266402 176.03401074 152.95381066 180.3125 148.30859375 C184.04833541 146.15011107 186.99394537 145.61203217 191.125 146.68359375 C197.23868689 149.8782248 201.61125931 154.4831162 204.29199219 160.84326172 C205.18600537 163.89160562 205.19773856 165.90408655 204.86328125 169.046875 C204.75467773 170.09979736 204.64607422 171.15271973 204.53417969 172.23754883 C203.86661645 177.8596581 203.17445682 183.47777125 202.45373535 189.09332275 C200.43703239 204.92689138 198.95146346 220.73771057 198.125 236.68359375 C198.07827148 237.50601563 198.03154297 238.3284375 197.98339844 239.17578125 C197.55929282 247.30150237 197.67389349 254.6141893 202.125 261.68359375 C204.96811046 264.29618174 206.63710096 264.60994861 210.4375 265.18359375 C217.90975582 264.17040652 222.83609344 259.5743447 227.48046875 253.87109375 C234.55284836 244.46365294 238.35987494 233.96174433 242.30541992 222.96118164 C242.97049377 221.11296181 243.66964114 219.2770283 244.37890625 217.4453125 C245.26595247 214.16184821 245.14296969 211.62644035 244.8125 208.24609375 C244.70421875 206.99957031 244.5959375 205.75304687 244.484375 204.46875 C244.36578125 203.21964844 244.2471875 201.97054687 244.125 200.68359375 C241.05519954 167.68323878 243.77579593 134.43336189 248.125 101.68359375 C246.53912812 101.20681294 244.95317471 100.73030328 243.3671875 100.25390625 C242.48401855 99.98852051 241.60084961 99.72313477 240.69091797 99.44970703 C233.13789653 97.19458036 226.01673175 96.18340343 218.125 95.68359375 C217.375 93.43359375 217.375 93.43359375 217.125 90.68359375 C218.421875 88.3984375 218.421875 88.3984375 221.125 86.68359375 C224.55259921 86.11771652 227.90910609 86.17179035 231.375 86.24609375 C232.29152344 86.23900391 233.20804688 86.23191406 234.15234375 86.22460938 C240.14106853 86.28013963 244.64781012 87.26000152 250.125 89.68359375 C250.21998779 89.05606201 250.31497559 88.42853027 250.4128418 87.78198242 C254.96503483 58.12113536 260.56429899 21.91697369 286.125 2.68359375 C291.64776339 -0.01043717 298.10302308 -0.07016648 304.125 0.68359375 C308.56595897 2.99816135 311.34384672 4.83349388 313.3125 9.49609375 C319.44071519 34.63748941 304.52506134 63.6548924 294.125 85.68359375 C293.67060547 86.6473291 293.21621094 87.61106445 292.74804688 88.60400391 C289.89572802 94.64115058 287.02097103 100.66727095 284.125 106.68359375 C306.39446074 110.96912571 330.05171972 112.10163092 350.125 99.68359375 C354.77580074 96.2404255 360.50632743 91.92093889 363.125 86.68359375 C365.0625 85.93359375 365.0625 85.93359375 367.125 85.68359375 C369.125 87.68359375 369.125 87.68359375 369.5 90.43359375 C368.70762601 97.30083498 363.76248326 101.4393819 358.71484375 105.734375 C342.64614306 117.82831413 320.39593412 120.75330417 300.875 120.99609375 C299.96395508 121.01389893 299.05291016 121.0317041 298.11425781 121.05004883 C291.66924429 121.04245133 286.18753858 119.84539751 280.125 117.68359375 C278.26854374 136.86532934 277.90398603 155.98586657 277.875 175.24609375 C277.87000488 176.39482971 277.86500977 177.54356567 277.85986328 178.72711182 C276.25079167 220.68609806 276.25079167 220.68609806 290.61328125 258.28515625 C295.44796173 261.67750962 301.48352073 261.4591951 307.125 260.68359375 C317.30298364 257.91444865 323.94072408 248.50951299 329.25 239.99609375 C329.65275146 239.36662842 330.05550293 238.73716309 330.47045898 238.08862305 C332.2348019 235.11410929 333.14374937 233.11482934 332.9921875 229.62890625 C331.74555631 225.39485257 330.43554686 221.19486008 329.0625 217 C323.06020568 195.76688385 327.79292697 171.15193918 333.0625 150.24609375 C333.30307129 149.28058594 333.54364258 148.31507813 333.79150391 147.3203125 C335.58943891 140.58193366 337.50047385 135.85168057 343 131.30859375 C346.59753095 129.43787766 348.13930393 128.96616846 352.125 129.68359375 C357.00405807 131.82054554 361.10510283 134.65527666 363.51953125 139.56518555 C365.91642134 147.95140139 363.72190374 157.83437752 362.625 166.30859375 C361.31512482 177.42474996 360.81497191 188.37657751 360.8125 199.55859375 C360.80927734 200.26348938 360.80605469 200.96838501 360.80273438 201.69464111 C360.76845045 213.91793146 360.84588241 227.38628211 366.125 238.68359375 C368.03714647 240.99866454 368.03714647 240.99866454 371.3125 241.12109375 C376.58396889 240.51617109 380.01579385 238.10672127 383.49633789 234.1081543 C384.75956384 232.38023534 385.92405132 230.62109892 387.0625 228.80859375 C387.48144531 228.15294434 387.90039062 227.49729492 388.33203125 226.82177734 C389.6151527 224.78676616 390.87065294 222.73643135 392.125 220.68359375 C392.51961426 220.06097656 392.91422852 219.43835938 393.32080078 218.796875 C393.89096924 217.89001953 393.89096924 217.89001953 394.47265625 216.96484375 C394.96971069 216.18077148 394.96971069 216.18077148 395.47680664 215.38085938 C404.38217152 199.30840837 402.76398969 178.91008926 403.625 160.99609375 C404.95723343 133.47978472 404.95723343 133.47978472 406.03125 120.4765625 C406.09566284 119.61170731 406.16007568 118.74685211 406.22644043 117.85578918 C406.73760511 112.12401254 408.08072269 107.05891005 410.125 101.68359375 C418.52212118 102.05679914 425.95348588 106.36003556 432.0625 111.99609375 C438.17249976 118.84921996 439.7314681 125.79716505 439.3671875 134.77734375 C439.34475479 135.74125031 439.32232208 136.70515686 439.29920959 137.69827271 C439.21998681 140.86098246 439.11030794 144.02182829 439 147.18359375 C438.9379711 149.41060153 438.87753186 151.63765411 438.81860352 153.86474609 C438.35862218 170.3784963 437.65734863 186.88472761 436.92602539 203.38839722 C436.15356075 220.83258357 435.8684472 238.22418895 436.125 255.68359375 C436.98150146 255.80766602 437.83800293 255.93173828 438.72045898 256.05957031 C461.65002878 259.46708058 480.79940771 270.06443044 500.99243164 280.87988281 C519.85550733 290.97141989 541.40327878 301.65989451 563.25 295.18359375 C569.12394808 292.983852 574.20882255 289.74791525 579.41015625 286.29296875 C582.125 284.68359375 582.125 284.68359375 585.125 284.68359375 C584.85021333 287.80488844 584.13247095 288.676957 581.74609375 290.796875 C563.63913831 303.30511539 543.18792761 310.97481101 520.875 308.29296875 C498.12991165 304.1087308 477.5962102 291.4488744 457.49609375 280.6640625 C456.644104 280.20950684 455.79211426 279.75495117 454.91430664 279.28662109 C453.37185468 278.46212913 451.83288945 277.63105843 450.29858398 276.79150391 C446.72588158 274.87542237 443.23125636 273.31092347 439.36962891 272.05932617 C438.17196396 271.66858162 438.17196396 271.66858162 436.95010376 271.26994324 C436.34781952 271.07644791 435.74553528 270.88295258 435.125 270.68359375 C435.13166183 271.31331085 435.13832367 271.94302795 435.14518738 272.59182739 C435.68926701 326.58620575 435.68926701 326.58620575 433.8125 349.12109375 C433.7535556 349.8520929 433.69461121 350.58309204 433.63388062 351.33624268 C432.9667926 359.36347797 431.94939942 367.31212494 430.66015625 375.26171875 C430.4837989 376.36192604 430.4837989 376.36192604 430.30387878 377.48435974 C427.05631853 396.57997027 417.4998114 414.88958426 401.5 426.24609375 C400.06518148 427.09943318 398.60722024 427.91553417 397.125 428.68359375 C396.47789062 429.02003906 395.83078125 429.35648438 395.1640625 429.703125 C385.72362445 433.66376855 373.55684043 432.97008694 364.0625 429.62109375 C355.92510591 425.98978164 350.3542716 421.61239136 346.9140625 413.28515625 C340.64585833 392.61870092 343.14915055 369.11623113 349.125 348.68359375 C349.33366699 347.94995605 349.54233398 347.21631836 349.75732422 346.46044922 C357.13068608 321.31358978 370.87089628 298.26784904 386.8515625 277.71875 C387.36557617 277.04980713 387.87958984 276.38086426 388.40917969 275.69165039 C390.125 273.68359375 390.125 273.68359375 392.28613281 271.81420898 C396.81107483 267.70039771 398.55996325 264.4851184 398.87783813 258.46385193 C398.92637569 254.50830207 398.79332965 250.57247343 398.625 246.62109375 C398.58480853 244.97599842 398.54831773 243.3308083 398.515625 241.68554688 C398.42809636 237.68252752 398.29042932 233.68412 398.125 229.68359375 C397.65231689 230.43342529 397.17963379 231.18325684 396.69262695 231.95581055 C396.06831787 232.94234619 395.44400879 233.92888184 394.80078125 234.9453125 C394.18372314 235.92201904 393.56666504 236.89872559 392.9309082 237.9050293 C387.99264465 245.50302544 381.96785474 251.56127978 373.046875 254.328125 C364.58617698 255.8930102 357.5889917 253.7343278 350.55859375 248.9296875 C347.58959455 246.64694173 344.77376829 244.33236204 342.125 241.68359375 C341.25101563 243.29814453 341.25101563 243.29814453 340.359375 244.9453125 C332.08258959 259.85209434 323.19146025 273.07673379 306.09375 278.3046875 C296.31941753 280.18585863 286.89936592 278.09046964 278.390625 273.0703125 C275.88798118 271.36017256 273.4999296 269.56615989 271.125 267.68359375 C270.48820313 267.21050781 269.85140625 266.73742187 269.1953125 266.25 C260.12986795 259.13866239 256.03669575 249.71006222 252.38671875 239.125 C251.25701455 235.62769295 251.25701455 235.62769295 249.125 232.68359375 C248.856875 233.31523437 248.58875 233.946875 248.3125 234.59765625 C241.2032417 250.82734461 232.09485444 267.97726761 215.3828125 276 C206.59597615 279.34459155 196.63906442 280.4703352 187.5625 277.49609375 C180.35849685 273.69761936 176.90030837 268.11984877 174.43359375 260.56640625 C173.4430763 256.89525764 172.88758653 253.4822093 173.125 249.68359375 C169.73537328 251.59539013 167.02908081 253.59647875 164.25 256.30859375 C151.17695059 268.10252223 133.43947125 277.16907581 115.72265625 276.94921875 C105.63928944 276.20473564 98.10132313 270.74103691 91.125 263.68359375 C88.48799098 260.4028443 86.18730455 256.93905557 83.90234375 253.40625 C82.25049906 250.67203793 82.25049906 250.67203793 80.125 248.68359375 C79.57585937 249.66585937 79.57585937 249.66585937 79.015625 250.66796875 C72.32147868 261.95238684 63.68119604 272.01923219 51.125 276.68359375 C50.031875 277.11671875 48.93875 277.54984375 47.8125 277.99609375 C39.38921114 279.56653744 29.80818738 280.02288379 22.125 275.68359375 C13.01449339 268.5136659 11.3617867 255.3422213 9.125 244.68359375 C8.67511719 245.555 8.22523438 246.42640625 7.76171875 247.32421875 C1.55658462 258.95884524 -6.4106944 269.71735574 -17.875 276.68359375 C-18.54660156 277.09351563 -19.21820313 277.5034375 -19.91015625 277.92578125 C-26.21831082 281.2458626 -32.86209764 281.69192557 -39.875 280.68359375 C-51.57798705 275.02656074 -59.31969944 262.70639522 -63.8125 250.93359375 C-64.163125 249.86109375 -64.51375 248.78859375 -64.875 247.68359375 C-65.58462891 248.91722656 -65.58462891 248.91722656 -66.30859375 250.17578125 C-70.81922934 257.79022652 -75.59935809 264.37439226 -81.875 270.68359375 C-82.46410156 271.3075 -83.05320312 271.93140625 -83.66015625 272.57421875 C-87.88419895 276.69614174 -92.65440593 279.34651482 -97.875 281.99609375 C-98.53959229 282.33398926 -99.20418457 282.67188477 -99.88891602 283.02001953 C-113.53447215 289.64570444 -129.29515726 289.70407861 -143.5637207 284.88232422 C-148.75638943 282.94580416 -152.92596041 280.55224577 -156.875 276.68359375 C-157.7825 275.85859375 -158.69 275.03359375 -159.625 274.18359375 C-163.42678894 269.4152483 -164.45376574 262.47968879 -165.875 256.68359375 C-166.64457031 256.93882812 -166.64457031 256.93882812 -167.4296875 257.19921875 C-181.11928681 261.53195388 -195.53829131 265.80468254 -209.875 262.68359375 C-209.96136719 263.53953125 -210.04773438 264.39546875 -210.13671875 265.27734375 C-220.92785264 364.27857209 -220.92785264 364.27857209 -256.875 394.68359375 C-264.99661436 400.40248112 -273.6262782 405.18572552 -283.875 403.68359375 C-292.01162513 401.33676059 -297.26056483 396.8346314 -301.72265625 389.75 C-309.91223669 374.70968772 -313.73691972 356.47769283 -309.625 339.62109375 C-308.25882595 335.35735985 -306.92302525 331.99287831 -303.875 328.68359375 C-300.6875 327.74609375 -300.6875 327.74609375 -297.875 327.68359375 C-297.545 328.01359375 -297.215 328.34359375 -296.875 328.68359375 C-296.94311071 330.02104046 -297.08389518 331.35475517 -297.25 332.68359375 C-299.98322877 354.7762946 -299.98322877 354.7762946 -293.875 375.68359375 C-292.20243384 377.79360534 -292.20243384 377.79360534 -289.875 378.68359375 C-284.95406805 378.79294779 -282.07360375 376.82123071 -278.6015625 373.6015625 C-265.3153834 358.84248119 -262.67755094 338.02857756 -260.39453125 319.14453125 C-260.17509386 317.36953931 -259.95516997 315.59460745 -259.73478699 313.81973267 C-259.27715545 310.12062418 -258.82473511 306.42092783 -258.3762207 302.72070312 C-257.80385047 298.00142544 -257.21936017 293.28374467 -256.63107777 288.56642723 C-256.17614515 284.90879011 -255.72717471 281.25043998 -255.2800045 277.59184647 C-255.06681889 275.85267859 -254.85193986 274.11371735 -254.63526344 272.37498093 C-251.61099038 257.75182226 -251.61099038 257.75182226 -254.60546875 244.3515625 C-255.41628906 243.86300781 -256.22710937 243.37445313 -257.0625 242.87109375 C-257.96742188 242.32582031 -258.87234375 241.78054688 -259.8046875 241.21875 C-272.68747574 234.77735588 -286.85483597 230.94154822 -301.1875 234.5078125 C-303.79679759 235.48267507 -306.33310067 236.54620151 -308.875 237.68359375 C-311.24041837 238.55644186 -313.39409994 239.16673957 -315.875 239.68359375 C-316.865 239.02359375 -317.855 238.36359375 -318.875 237.68359375 C-319.34042376 234.52905495 -319.56546775 232.69496148 -318.875 229.68359375 C-311.21710367 220.81655589 -298.60882559 219.54191799 -287.609375 218.4609375 C-273.71658475 217.85113945 -260.59759038 222.0172997 -249.875 230.68359375 C-247.33035794 214.4413377 -245.69984819 198.18650236 -244.3125 181.80859375 C-244.09426486 179.28067102 -243.87592104 176.75275766 -243.6574707 174.22485352 C-242.15812594 156.72501637 -240.81692911 139.22288733 -239.875 121.68359375 C-240.6278125 121.41546875 -241.380625 121.14734375 -242.15625 120.87109375 C-255.00773881 116.12976778 -266.9495256 109.71596255 -279.05833435 103.36187744 C-313.79802298 84.00022991 -313.79802298 84.00022991 -352.25 83.18359375 C-358.0342627 85.11168132 -363.12732473 87.8521713 -368.29443359 91.04101562 C-372.59674061 93.68359375 -372.59674061 93.68359375 -375.875 93.68359375 C-375.60021333 90.56229906 -374.88247095 89.6902305 -372.49609375 87.5703125 C-352.51465711 73.7671851 -330.39433962 66.55387629 -306.0078125 70.2734375 C-281.84501446 76.01011931 -259.43479082 89.86090954 -237.875 101.68359375 C-237.71644531 100.38808594 -237.55789062 99.09257812 -237.39453125 97.7578125 C-234.43831876 74.74517094 -230.19412006 48.68949084 -211.078125 33.23046875 C-204.60109151 28.67730659 -197.50431323 28.86306782 -189.875 29.68359375 C-180.81055966 32.68010295 -173.29010519 38.16088688 -167.5625 45.74609375 C-161.61070818 57.70281839 -161.38115802 72.8480684 -165.4375 85.43359375 C-169.80439134 95.87343792 -178.09364648 109.44245242 -188.92700195 113.95483398 C-192.71419954 115.59136509 -195.6034678 117.21936005 -197.875 120.68359375 C-200.512997 129.21165429 -200.07004341 138.65665651 -200.3125 147.49609375 C-200.42786887 150.15689583 -200.54836973 152.81676687 -200.67871094 155.47680664 C-200.74477743 156.83884621 -200.81072502 158.20089155 -200.8765564 159.5629425 C-200.90954205 160.24430079 -200.94252769 160.92565907 -200.97651291 161.62766457 C-201.07490653 163.72166857 -201.16549696 165.81588283 -201.25405884 167.9103241 C-201.91147784 183.18783793 -203.25700941 198.39350807 -204.625 213.62109375 C-204.95875382 217.39441465 -205.29045031 221.16790113 -205.61967468 224.94161987 C-205.81530015 227.17934608 -206.0134675 229.41685213 -206.2146759 231.65408325 C-206.34575996 233.13810135 -206.34575996 233.13810135 -206.47949219 234.65209961 C-206.55625183 235.50815292 -206.63301147 236.36420624 -206.71209717 237.24620056 C-206.8782982 239.73294218 -206.90317997 242.1920845 -206.875 244.68359375 C-194.74178741 247.0531388 -183.20441189 243.72093603 -172.16796875 238.671875 C-169.875 237.68359375 -169.875 237.68359375 -167.875 237.68359375 C-167.84921875 236.56984375 -167.8234375 235.45609375 -167.796875 234.30859375 C-167.21116586 216.50146361 -164.20639914 198.15855467 -151.5625 184.62109375 C-140.71277607 174.64454965 -129.29306964 173.98216895 -115.27246094 174.50878906 C-109.51468945 174.92860214 -104.34602452 176.27950443 -100.14453125 180.3671875 C-95.13850836 186.88763748 -95.34842143 193.79466667 -95.875 201.68359375 C-97.85756067 213.25973192 -104.61709438 221.77144124 -113.875 228.68359375 C-118.91934514 231.71370385 -123.63358212 233.8320201 -129.5625 233.74609375 C-130.37074219 233.73707031 -131.17898438 233.72804688 -132.01171875 233.71875 C-132.93404297 233.70134766 -132.93404297 233.70134766 -133.875 233.68359375 C-133.18897797 253.28287361 -133.18897797 253.28287361 -123.875 269.68359375 C-118.31779467 272.98635473 -112.46868663 275.89088849 -105.875 274.68359375 C-87.0043287 267.42564325 -77.13705608 251.46783927 -68.56640625 234.01953125 C-67.48100995 228.7826474 -68.43440558 223.87400542 -69.1875 218.62109375 C-69.4781654 216.48476824 -69.76592033 214.34804473 -70.05078125 212.2109375 C-70.25054565 210.79929321 -70.25054565 210.79929321 -70.4543457 209.35913086 C-71.63294771 199.06089916 -72.04145379 188.82131025 -72.078125 178.4609375 C-72.08510382 177.11984221 -72.09214478 175.77874725 -72.09924316 174.43765259 C-72.11855537 170.16546225 -72.12342025 165.89332297 -72.125 161.62109375 C-72.12588371 160.53064318 -72.12588371 160.53064318 -72.12678528 159.4181633 C-72.13977771 136.71948995 -71.7346723 114.23136209 -68.875 91.68359375 C-68.6581958 89.91725586 -68.6581958 89.91725586 -68.43701172 88.11523438 C-64.79811876 59.40706891 -59.73322302 24.01405119 -36.875 3.68359375 C-25.80890372 -3.68879875 -12.2214214 -7.09566078 0 0 Z M-14.875 6.68359375 C-35.07233213 35.91083463 -36.55152559 84.96056748 -41.01171875 119.19921875 C-41.17760498 120.46540039 -41.34349121 121.73158203 -41.5144043 123.03613281 C-41.86797778 126.61256326 -41.93890041 130.09244832 -41.875 133.68359375 C-19.56242325 116.12931867 -8.40919008 82.64995978 -2.875 55.68359375 C-2.72546875 54.95881836 -2.5759375 54.23404297 -2.421875 53.48730469 C-0.57069222 44.17154651 0.40943746 34.99761388 0.5 25.49609375 C0.51385742 24.63540283 0.52771484 23.77471191 0.54199219 22.88793945 C0.49696212 16.82724736 -0.15133218 10.74045246 -4.36181641 6.01489258 C-8.32660468 2.52667211 -10.88851051 3.78871485 -14.875 6.68359375 Z M292.125 14.68359375 C281.8763221 35.38904452 280.80374676 64.95492716 281.125 87.68359375 C285.47089367 83.82402628 287.41452086 78.40519985 289.875 73.24609375 C290.40923584 72.12605957 290.94347168 71.00602539 291.49389648 69.85205078 C303.96016194 43.79990497 303.96016194 43.79990497 305.125 15.68359375 C303.83401242 12.73276499 303.03310839 11.24724723 300.3125 9.55859375 C296.72777873 9.76343497 294.48051581 12.1677591 292.125 14.68359375 Z M-191.4375 47.18359375 C-202.99338798 59.03578655 -200.16867348 81.43515035 -199.98046875 96.68359375 C-199.94740454 98.68362943 -199.91308492 100.68364738 -199.875 102.68359375 C-194.36534582 102.68359375 -190.4961015 98.27538058 -186.71484375 94.5625 C-179.94525628 87.26146827 -175.07988877 79.25309547 -174.8046875 69.0859375 C-175.19261305 60.97372973 -177.85151824 54.44004078 -182.9375 48.12109375 C-186.32617042 45.60691892 -187.65399292 44.9688579 -191.4375 47.18359375 Z M-124.875 188.68359375 C-131.86773885 200.38536686 -134.86710864 211.14685554 -132.875 224.68359375 C-125.61484494 223.57338895 -119.24541647 222.49915956 -114.21875 216.80859375 C-109.45638223 210.27201054 -106.27375694 202.51359513 -107 194.30859375 C-108.03937663 190.00260487 -109.04565932 186.96413223 -112.75 184.37109375 C-118.44941048 182.52716683 -121.46739274 183.88881893 -124.875 188.68359375 Z M398.125 281.68359375 C370.81528826 309.65792237 352.96109999 346.60770249 352.9375 385.99609375 C352.92525391 387.06021484 352.91300781 388.12433594 352.90039062 389.22070312 C352.880977 399.82701122 353.1850841 409.53153799 360.875 417.49609375 C365.18865979 419.77274753 369.01177422 420.26407861 373.65625 418.98828125 C384.59967058 414.80209326 390.48370547 408.9582831 395.25 398.30859375 C400.62388594 383.96324131 402.27318622 368.2500212 402.29296875 353.04296875 C402.29711288 352.04945404 402.30125702 351.05593933 402.30552673 350.03231812 C402.31514037 346.83270508 402.31519424 343.63321891 402.3125 340.43359375 C402.31256042 339.34576599 402.31262085 338.25793823 402.31268311 337.137146 C402.30201763 323.67210766 402.13632317 310.24677968 401.25 296.80859375 C401.17160889 295.59397461 401.09321777 294.37935547 401.01245117 293.12792969 C400.69000961 287.05238062 400.69000961 287.05238062 398.125 281.68359375 Z " fill="#000000" transform="translate(458.875,106.31640625)"/>
<path d="M0 0 C7.95883023 0.13047263 14.27421849 2.78195917 21 7 C23.37625825 10.56438737 23.14436846 11.71337489 22.75 15.875 C22.66234375 16.90367187 22.5746875 17.93234375 22.484375 18.9921875 C22.01233432 21.92340787 21.21476499 24.30162859 20 27 C13.16334232 27.39274416 6.09397639 27.50292439 0 24 C-3.71192964 19.3792216 -4.59971435 13.8187158 -4.3359375 8.015625 C-3.78848426 4.73090554 -2.33253848 2.33253848 0 0 Z " fill="#000000" transform="translate(486,208)"/>
<path d="M0 0 C7.51143173 0.50423963 14.14375838 1.84981527 20.5 6.0625 C23.64098245 9.75315438 23.62811831 11.78448413 23.33984375 16.48828125 C22.2176259 24.7823741 22.2176259 24.7823741 20 27 C13.37561494 27.42059588 6.97491305 27.17517821 1 24 C-2.71346732 20.1051551 -3.24763484 15.52324377 -3.4375 10.3125 C-3.29225855 6.12954627 -2.74543654 3.31740248 0 0 Z " fill="#000000" transform="translate(647,208)"/>
<path d="M0 0 C0.66 0 1.32 0 2 0 C2 1.32 2 2.64 2 4 C1.01 4.33 0.02 4.66 -1 5 C-1.33 4.34 -1.66 3.68 -2 3 C-1.34 2.34 -0.68 1.68 0 1 C0 0.67 0 0.34 0 0 Z " fill="#000000" transform="translate(722,473)"/>
<path d="M0 0 C0.66 0.66 1.32 1.32 2 2 C1.01 2.33 0.02 2.66 -1 3 C-0.67 2.01 -0.34 1.02 0 0 Z " fill="#000000" transform="translate(720,478)"/>
<path d="M0 0 C0.66 0.66 1.32 1.32 2 2 C1.34 2 0.68 2 0 2 C0 1.34 0 0.68 0 0 Z " fill="#000000" transform="translate(706,509)"/>
<path d="" fill="#000000" transform="translate(0,0)"/>
<path d="" fill="#000000" transform="translate(0,0)"/>
<path d="" fill="#000000" transform="translate(0,0)"/>
<path d="" fill="#000000" transform="translate(0,0)"/>
<path d="" fill="#000000" transform="translate(0,0)"/>
<path d="" fill="#000000" transform="translate(0,0)"/>
<path d="" fill="#000000" transform="translate(0,0)"/>
<path d="" fill="#000000" transform="translate(0,0)"/>
</svg>
